<?xml version="1.0" encoding="UTF-8" ?>
<!DOCTYPE score-partwise PUBLIC '-//Recordare//DTD MusicXML 2.0 Partwise//EN' 'http://www.musicxml.org/dtds/2.0/partwise.dtd'>
<score-partwise version="2.0">
 <work>
  <work-title>PICK IT OUT</work-title>
 </work>
 <identification>
  <creator type="arranger">Franck Duhamel</creator>
  <encoding>
   <encoding-date>2021-04-14</encoding-date>
   <software>Guitar Pro 7.5.2</software>
  </encoding>
 </identification>
 <defaults>
  <scaling>
   <millimeters>6.4</millimeters>
   <tenths>40</tenths>
  </scaling>
  <page-layout>
   <page-height>1850</page-height>
   <page-width>1310</page-width>
  </page-layout>
 </defaults>
 <credit>
  <credit-words valign="top" justify="center" font-size="24">PICK IT OUT</credit-words>
 </credit>
 <credit>
  <credit-words valign="bottom" justify="right" font-size="12">Franck Duhamel</credit-words>
 </credit>
 <part-list>
  <score-part id="P1">
   <part-name>Acoustic Guitar (Steel)</part-name>
   <part-abbreviation>s.guit.</part-abbreviation>
   <midi-instrument id="P1">
    <midi-channel>1</midi-channel>
    <midi-bank>1</midi-bank>
    <midi-program>26</midi-program>
    <volume>80</volume>
    <pan>0</pan>
   </midi-instrument>
  </score-part>
 </part-list>
 <part id="P1">
  <measure number="0">
   <attributes>
    <divisions>2</divisions>
    <key>
     <fifths>0</fifths>
     <mode>major</mode>
    </key>
    <time>
     <beats>4</beats>
     <beat-type>4</beat-type>
    </time>
    <clef number="1">
     <sign>TAB</sign>
     <line>5</line>
    </clef>
    <staff-details number="1">
     <staff-lines>6</staff-lines>
     <staff-tuning line="1">
      <tuning-step>E</tuning-step>
      <tuning-octave>2</tuning-octave>
     </staff-tuning>
     <staff-tuning line="2">
      <tuning-step>A</tuning-step>
      <tuning-octave>2</tuning-octave>
     </staff-tuning>
     <staff-tuning line="3">
      <tuning-step>D</tuning-step>
      <tuning-octave>3</tuning-octave>
     </staff-tuning>
     <staff-tuning line="4">
      <tuning-step>G</tuning-step>
      <tuning-octave>3</tuning-octave>
     </staff-tuning>
     <staff-tuning line="5">
      <tuning-step>B</tuning-step>
      <tuning-octave>3</tuning-octave>
     </staff-tuning>
     <staff-tuning line="6">
      <tuning-step>E</tuning-step>
      <tuning-octave>4</tuning-octave>
     </staff-tuning>
    </staff-details>
   </attributes>
   <direction directive="yes">
    <direction-type>
     <metronome default-y="40" parentheses="yes">
      <beat-unit>quarter</beat-unit>
      <per-minute>140</per-minute>
     </metronome>
    </direction-type>
    <direction-type>
     <metronome>
      <metronome-note>
       <metronome-type>eighth</metronome-type>
       <metronome-beam number="1">begin</metronome-beam>
      </metronome-note>
      <metronome-note>
       <metronome-type>eighth</metronome-type>
       <metronome-beam number="1">end</metronome-beam>
      </metronome-note>
      <metronome-relation>equals</metronome-relation>
      <metronome-note>
       <metronome-type>quarter</metronome-type>
       <metronome-tuplet bracket="yes" type="start">
        <actual-notes>3</actual-notes>
        <normal-notes>2</normal-notes>
        <normal-type>eighth</normal-type>
       </metronome-tuplet>
      </metronome-note>
      <metronome-note>
       <metronome-type>eighth</metronome-type>
       <metronome-tuplet bracket="yes" type="stop">
        <actual-notes>3</actual-notes>
        <normal-notes>2</normal-notes>
        <normal-type>eighth</normal-type>
       </metronome-tuplet>
      </metronome-note>
     </metronome>
    </direction-type>
    <sound tempo="140"/>
   </direction>
   <note>
    <pitch>
     <step>G</step>
     <octave>2</octave>
    </pitch>
    <duration>2</duration>
    <voice>2</voice>
    <type>quarter</type>
    <stem>up</stem>
    <notations>
     <dynamics>
      <mf/>
     </dynamics>
     <technical>
      <string>6</string>
      <fret>3</fret>
     </technical>
    </notations>
   </note>
   <note>
    <pitch>
     <step>A</step>
     <octave>2</octave>
    </pitch>
    <duration>1</duration>
    <voice>2</voice>
    <type>eighth</type>
    <stem>up</stem>
    <beam number="1">begin</beam>
    <notations>
     <dynamics>
      <mf/>
     </dynamics>
     <technical>
      <string>5</string>
      <fret>0</fret>
     </technical>
    </notations>
   </note>
   <note>
    <pitch>
     <step>A</step>
     <octave>2</octave>
    </pitch>
    <duration>1</duration>
    <voice>2</voice>
    <type>eighth</type>
    <stem>up</stem>
    <beam number="1">end</beam>
    <notations>
     <dynamics>
      <mf/>
     </dynamics>
     <technical>
      <string>5</string>
      <fret>0</fret>
     </technical>
    </notations>
   </note>
   <note>
    <pitch>
     <step>B</step>
     <octave>2</octave>
    </pitch>
    <duration>2</duration>
    <voice>2</voice>
    <type>quarter</type>
    <stem>up</stem>
    <notations>
     <dynamics>
      <mf/>
     </dynamics>
     <technical>
      <string>5</string>
      <fret>2</fret>
     </technical>
    </notations>
   </note>
  </measure>
  <measure number="1">
   <harmony>
    <root>
     <root-step>C</root-step>
     <root-alter>0</root-alter>
    </root>
    <kind>major</kind>
    <frame>
     <frame-strings>6</frame-strings>
     <frame-frets>5</frame-frets>
     <first-fret>1</first-fret>
     <frame-note>
      <string>5</string>
      <fret>3</fret>
     </frame-note>
     <frame-note>
      <string>4</string>
      <fret>2</fret>
     </frame-note>
     <frame-note>
      <string>3</string>
      <fret>0</fret>
     </frame-note>
     <frame-note>
      <string>2</string>
      <fret>1</fret>
     </frame-note>
     <frame-note>
      <string>1</string>
      <fret>0</fret>
     </frame-note>
    </frame>
   </harmony>
   <note>
    <pitch>
     <step>E</step>
     <octave>4</octave>
    </pitch>
    <duration>1</duration>
    <voice>1</voice>
    <type>eighth</type>
    <stem>up</stem>
    <beam number="1">begin</beam>
    <notations>
     <technical>
      <string>1</string>
      <fret>0</fret>
     </technical>
    </notations>
   </note>
   <note>
    <pitch>
     <step>G</step>
     <octave>3</octave>
    </pitch>
    <duration>1</duration>
    <voice>1</voice>
    <type>eighth</type>
    <stem>up</stem>
    <beam number="1">end</beam>
    <notations>
     <technical>
      <string>3</string>
      <fret>0</fret>
     </technical>
    </notations>
   </note>
   <note>
    <pitch>
     <step>C</step>
     <octave>4</octave>
    </pitch>
    <duration>1</duration>
    <voice>1</voice>
    <type>eighth</type>
    <stem>up</stem>
    <beam number="1">begin</beam>
    <notations>
     <technical>
      <string>2</string>
      <fret>1</fret>
     </technical>
    </notations>
   </note>
   <note>
    <pitch>
     <step>G</step>
     <octave>4</octave>
    </pitch>
    <duration>1</duration>
    <tie type="start"/>
    <voice>1</voice>
    <type>eighth</type>
    <stem>up</stem>
    <beam number="1">end</beam>
    <notations>
     <technical>
      <string>1</string>
      <fret>3</fret>
     </technical>
     <tied type="start"/>
    </notations>
   </note>
   <note>
    <pitch>
     <step>G</step>
     <octave>4</octave>
    </pitch>
    <duration>1</duration>
    <tie type="stop"/>
    <tie type="start"/>
    <voice>1</voice>
    <type>eighth</type>
    <stem>up</stem>
    <beam number="1">begin</beam>
    <notations>
     <technical>
      <string>1</string>
      <fret>3</fret>
     </technical>
     <tied type="stop"/>
     <tied type="start"/>
    </notations>
   </note>
   <note>
    <pitch>
     <step>G</step>
     <octave>3</octave>
    </pitch>
    <duration>1</duration>
    <voice>1</voice>
    <type>eighth</type>
    <stem>up</stem>
    <beam number="1">end</beam>
    <notations>
     <technical>
      <string>3</string>
      <fret>0</fret>
     </technical>
    </notations>
   </note>
   <note>
    <chord/>
    <pitch>
     <step>G</step>
     <octave>4</octave>
    </pitch>
    <duration>1</duration>
    <tie type="stop"/>
    <voice>1</voice>
    <type>eighth</type>
    <stem>up</stem>
    <beam number="1">end</beam>
    <notations>
     <technical>
      <string>1</string>
      <fret>3</fret>
     </technical>
     <tied type="stop"/>
    </notations>
   </note>
   <note>
    <pitch>
     <step>C</step>
     <octave>4</octave>
    </pitch>
    <duration>1</duration>
    <voice>1</voice>
    <type>eighth</type>
    <stem>up</stem>
    <beam number="1">begin</beam>
    <notations>
     <technical>
      <string>2</string>
      <fret>1</fret>
     </technical>
    </notations>
   </note>
   <note>
    <pitch>
     <step>G</step>
     <octave>3</octave>
    </pitch>
    <duration>1</duration>
    <tie type="start"/>
    <voice>1</voice>
    <type>eighth</type>
    <stem>up</stem>
    <beam number="1">end</beam>
    <notations>
     <technical>
      <string>3</string>
      <fret>0</fret>
     </technical>
     <tied type="start"/>
    </notations>
   </note>
   <backup>
    <duration>8</duration>
   </backup>
   <note>
    <pitch>
     <step>C</step>
     <octave>3</octave>
    </pitch>
    <duration>2</duration>
    <voice>2</voice>
    <type>quarter</type>
    <stem>up</stem>
    <notations>
     <technical>
      <string>5</string>
      <fret>3</fret>
     </technical>
    </notations>
   </note>
   <note>
    <pitch>
     <step>E</step>
     <octave>3</octave>
    </pitch>
    <duration>2</duration>
    <voice>2</voice>
    <type>quarter</type>
    <stem>up</stem>
    <notations>
     <technical>
      <string>4</string>
      <fret>2</fret>
     </technical>
    </notations>
   </note>
   <note>
    <pitch>
     <step>G</step>
     <octave>2</octave>
    </pitch>
    <duration>2</duration>
    <voice>2</voice>
    <type>quarter</type>
    <stem>up</stem>
    <notations>
     <technical>
      <string>6</string>
      <fret>3</fret>
     </technical>
    </notations>
   </note>
   <note>
    <pitch>
     <step>E</step>
     <octave>3</octave>
    </pitch>
    <duration>2</duration>
    <voice>2</voice>
    <type>quarter</type>
    <stem>up</stem>
    <notations>
     <technical>
      <string>4</string>
      <fret>2</fret>
     </technical>
    </notations>
   </note>
   <barline location="left">
    <repeat times="2" direction="forward"/>
   </barline>
  </measure>
  <measure number="2">
   <attributes>
    <divisions>4</divisions>
   </attributes>
   <harmony>
    <root>
     <root-step>E</root-step>
     <root-alter>0</root-alter>
    </root>
    <kind>dominant</kind>
    <frame>
     <frame-strings>6</frame-strings>
     <frame-frets>5</frame-frets>
     <first-fret>1</first-fret>
     <frame-note>
      <string>6</string>
      <fret>0</fret>
     </frame-note>
     <frame-note>
      <string>5</string>
      <fret>2</fret>
     </frame-note>
     <frame-note>
      <string>4</string>
      <fret>2</fret>
     </frame-note>
     <frame-note>
      <string>3</string>
      <fret>1</fret>
     </frame-note>
     <frame-note>
      <string>2</string>
      <fret>3</fret>
     </frame-note>
     <frame-note>
      <string>1</string>
      <fret>0</fret>
     </frame-note>
    </frame>
   </harmony>
   <note>
    <pitch>
     <step>G</step>
     <octave>3</octave>
    </pitch>
    <duration>1</duration>
    <tie type="stop"/>
    <voice>1</voice>
    <type>16th</type>
    <stem>up</stem>
    <beam number="1">begin</beam>
    <beam number="2">begin</beam>
    <notations>
     <technical>
      <hammer-on number="1" type="start">H</hammer-on>
      <string>3</string>
      <fret>0</fret>
     </technical>
     <tied type="stop"/>
     <slur type="start"/>
    </notations>
   </note>
   <note>
    <pitch>
     <step>G</step>
     <alter>1</alter>
     <octave>3</octave>
    </pitch>
    <duration>1</duration>
    <voice>1</voice>
    <type>16th</type>
    <accidental>sharp</accidental>
    <stem>up</stem>
    <beam number="1">continue</beam>
    <beam number="2">end</beam>
    <notations>
     <technical>
      <hammer-on number="1" type="stop"/>
      <string>3</string>
      <fret>1</fret>
     </technical>
     <slur type="stop"/>
    </notations>
   </note>
   <note>
    <pitch>
     <step>E</step>
     <octave>4</octave>
    </pitch>
    <duration>2</duration>
    <tie type="start"/>
    <voice>1</voice>
    <type>eighth</type>
    <stem>up</stem>
    <beam number="1">end</beam>
    <notations>
     <technical>
      <string>1</string>
      <fret>0</fret>
     </technical>
     <tied type="start"/>
    </notations>
   </note>
   <note>
    <pitch>
     <step>E</step>
     <octave>4</octave>
    </pitch>
    <duration>2</duration>
    <tie type="stop"/>
    <voice>1</voice>
    <type>eighth</type>
    <stem>up</stem>
    <beam number="1">begin</beam>
    <notations>
     <technical>
      <string>1</string>
      <fret>0</fret>
     </technical>
     <tied type="stop"/>
    </notations>
   </note>
   <note>
    <pitch>
     <step>G</step>
     <alter>1</alter>
     <octave>3</octave>
    </pitch>
    <duration>2</duration>
    <voice>1</voice>
    <type>eighth</type>
    <stem>up</stem>
    <beam number="1">end</beam>
    <notations>
     <technical>
      <string>3</string>
      <fret>1</fret>
     </technical>
    </notations>
   </note>
   <note>
    <pitch>
     <step>D</step>
     <octave>4</octave>
    </pitch>
    <duration>2</duration>
    <voice>1</voice>
    <type>eighth</type>
    <stem>up</stem>
    <beam number="1">begin</beam>
    <notations>
     <technical>
      <string>2</string>
      <fret>3</fret>
     </technical>
    </notations>
   </note>
   <note>
    <pitch>
     <step>B</step>
     <octave>3</octave>
    </pitch>
    <duration>2</duration>
    <tie type="start"/>
    <voice>1</voice>
    <type>eighth</type>
    <stem>up</stem>
    <beam number="1">end</beam>
    <notations>
     <technical>
      <string>2</string>
      <fret>0</fret>
     </technical>
     <tied type="start"/>
    </notations>
   </note>
   <note>
    <pitch>
     <step>B</step>
     <octave>3</octave>
    </pitch>
    <duration>2</duration>
    <tie type="stop"/>
    <voice>1</voice>
    <type>eighth</type>
    <stem>up</stem>
    <beam number="1">begin</beam>
    <notations>
     <technical>
      <string>2</string>
      <fret>0</fret>
     </technical>
     <tied type="stop"/>
    </notations>
   </note>
   <note>
    <pitch>
     <step>G</step>
     <alter>1</alter>
     <octave>3</octave>
    </pitch>
    <duration>2</duration>
    <voice>1</voice>
    <type>eighth</type>
    <stem>up</stem>
    <beam number="1">end</beam>
    <notations>
     <technical>
      <string>3</string>
      <fret>1</fret>
     </technical>
    </notations>
   </note>
   <backup>
    <duration>16</duration>
   </backup>
   <note>
    <pitch>
     <step>E</step>
     <octave>2</octave>
    </pitch>
    <duration>4</duration>
    <voice>2</voice>
    <type>quarter</type>
    <stem>up</stem>
    <notations>
     <technical>
      <string>6</string>
      <fret>0</fret>
     </technical>
    </notations>
   </note>
   <note>
    <pitch>
     <step>E</step>
     <octave>3</octave>
    </pitch>
    <duration>4</duration>
    <voice>2</voice>
    <type>quarter</type>
    <stem>up</stem>
    <notations>
     <technical>
      <string>4</string>
      <fret>2</fret>
     </technical>
    </notations>
   </note>
   <note>
    <pitch>
     <step>E</step>
     <octave>2</octave>
    </pitch>
    <duration>4</duration>
    <voice>2</voice>
    <type>quarter</type>
    <stem>up</stem>
    <notations>
     <technical>
      <string>6</string>
      <fret>0</fret>
     </technical>
    </notations>
   </note>
   <note>
    <pitch>
     <step>E</step>
     <octave>3</octave>
    </pitch>
    <duration>4</duration>
    <voice>2</voice>
    <type>quarter</type>
    <stem>up</stem>
    <notations>
     <technical>
      <string>4</string>
      <fret>2</fret>
     </technical>
    </notations>
   </note>
  </measure>
  <measure number="3">
   <attributes>
    <divisions>2</divisions>
   </attributes>
   <harmony>
    <root>
     <root-step>F</root-step>
     <root-alter>0</root-alter>
    </root>
    <kind>major</kind>
    <frame>
     <frame-strings>6</frame-strings>
     <frame-frets>5</frame-frets>
     <first-fret>1</first-fret>
     <frame-note>
      <string>6</string>
      <fret>1</fret>
     </frame-note>
     <frame-note>
      <string>5</string>
      <fret>3</fret>
     </frame-note>
     <frame-note>
      <string>4</string>
      <fret>3</fret>
     </frame-note>
     <frame-note>
      <string>3</string>
      <fret>2</fret>
     </frame-note>
     <frame-note>
      <string>2</string>
      <fret>1</fret>
     </frame-note>
     <frame-note>
      <string>1</string>
      <fret>1</fret>
     </frame-note>
    </frame>
   </harmony>
   <note>
    <pitch>
     <step>C</step>
     <octave>4</octave>
    </pitch>
    <duration>1</duration>
    <voice>1</voice>
    <type>eighth</type>
    <stem>up</stem>
    <beam number="1">begin</beam>
    <notations>
     <technical>
      <string>2</string>
      <fret>1</fret>
     </technical>
    </notations>
   </note>
   <note>
    <pitch>
     <step>A</step>
     <octave>3</octave>
    </pitch>
    <duration>1</duration>
    <voice>1</voice>
    <type>eighth</type>
    <stem>up</stem>
    <beam number="1">end</beam>
    <notations>
     <technical>
      <string>3</string>
      <fret>2</fret>
     </technical>
    </notations>
   </note>
   <note>
    <rest/>
    <duration>1</duration>
    <voice>1</voice>
    <type>eighth</type>
   </note>
   <note>
    <pitch>
     <step>C</step>
     <octave>4</octave>
    </pitch>
    <duration>1</duration>
    <voice>1</voice>
    <type>eighth</type>
    <stem>up</stem>
    <notations>
     <technical>
      <string>2</string>
      <fret>1</fret>
     </technical>
    </notations>
   </note>
   <note>
    <pitch>
     <step>D</step>
     <octave>4</octave>
    </pitch>
    <duration>1</duration>
    <voice>1</voice>
    <type>eighth</type>
    <stem>up</stem>
    <beam number="1">begin</beam>
    <notations>
     <technical>
      <string>2</string>
      <fret>3</fret>
     </technical>
    </notations>
   </note>
   <note>
    <pitch>
     <step>C</step>
     <octave>4</octave>
    </pitch>
    <duration>1</duration>
    <voice>1</voice>
    <type>eighth</type>
    <stem>up</stem>
    <beam number="1">end</beam>
    <notations>
     <technical>
      <string>2</string>
      <fret>1</fret>
     </technical>
    </notations>
   </note>
   <backup>
    <duration>6</duration>
   </backup>
   <note>
    <pitch>
     <step>F</step>
     <octave>2</octave>
    </pitch>
    <duration>2</duration>
    <voice>2</voice>
    <type>quarter</type>
    <stem>up</stem>
    <notations>
     <technical>
      <string>6</string>
      <fret>1</fret>
     </technical>
    </notations>
   </note>
   <note>
    <pitch>
     <step>F</step>
     <octave>3</octave>
    </pitch>
    <duration>2</duration>
    <voice>2</voice>
    <type>quarter</type>
    <stem>up</stem>
    <notations>
     <technical>
      <string>4</string>
      <fret>3</fret>
     </technical>
    </notations>
   </note>
   <note>
    <pitch>
     <step>F</step>
     <octave>2</octave>
    </pitch>
    <duration>2</duration>
    <voice>2</voice>
    <type>quarter</type>
    <stem>up</stem>
    <notations>
     <technical>
      <string>6</string>
      <fret>1</fret>
     </technical>
    </notations>
   </note>
   <note>
    <pitch>
     <step>F</step>
     <octave>3</octave>
    </pitch>
    <duration>2</duration>
    <voice>2</voice>
    <type>quarter</type>
    <stem>up</stem>
    <notations>
     <technical>
      <string>4</string>
      <fret>3</fret>
     </technical>
    </notations>
   </note>
  </measure>
  <measure number="4">
   <harmony>
    <root>
     <root-step>G</root-step>
     <root-alter>0</root-alter>
    </root>
    <kind>major</kind>
    <frame>
     <frame-strings>6</frame-strings>
     <frame-frets>5</frame-frets>
     <first-fret>1</first-fret>
     <frame-note>
      <string>6</string>
      <fret>3</fret>
     </frame-note>
     <frame-note>
      <string>5</string>
      <fret>5</fret>
     </frame-note>
     <frame-note>
      <string>4</string>
      <fret>5</fret>
     </frame-note>
     <frame-note>
      <string>3</string>
      <fret>4</fret>
     </frame-note>
     <frame-note>
      <string>2</string>
      <fret>3</fret>
     </frame-note>
     <frame-note>
      <string>1</string>
      <fret>3</fret>
     </frame-note>
    </frame>
   </harmony>
   <note>
    <pitch>
     <step>E</step>
     <octave>4</octave>
    </pitch>
    <duration>1</duration>
    <voice>1</voice>
    <type>eighth</type>
    <stem>up</stem>
    <beam number="1">begin</beam>
    <notations>
     <technical>
      <string>2</string>
      <fret>5</fret>
     </technical>
    </notations>
   </note>
   <note>
    <pitch>
     <step>B</step>
     <octave>3</octave>
    </pitch>
    <duration>1</duration>
    <voice>1</voice>
    <type>eighth</type>
    <stem>up</stem>
    <beam number="1">end</beam>
    <notations>
     <technical>
      <string>3</string>
      <fret>4</fret>
     </technical>
    </notations>
   </note>
   <note>
    <rest/>
    <duration>1</duration>
    <voice>1</voice>
    <type>eighth</type>
   </note>
   <note>
    <pitch>
     <step>D</step>
     <octave>4</octave>
    </pitch>
    <duration>1</duration>
    <tie type="start"/>
    <voice>1</voice>
    <type>eighth</type>
    <stem>up</stem>
    <notations>
     <technical>
      <string>2</string>
      <fret>3</fret>
     </technical>
     <tied type="start"/>
    </notations>
   </note>
   <note>
    <pitch>
     <step>D</step>
     <octave>4</octave>
    </pitch>
    <duration>1</duration>
    <tie type="stop"/>
    <voice>1</voice>
    <type>eighth</type>
    <stem>up</stem>
    <beam number="1">begin</beam>
    <notations>
     <technical>
      <string>2</string>
      <fret>3</fret>
     </technical>
     <tied type="stop"/>
    </notations>
   </note>
   <note>
    <pitch>
     <step>B</step>
     <octave>3</octave>
    </pitch>
    <duration>1</duration>
    <voice>1</voice>
    <type>eighth</type>
    <stem>up</stem>
    <beam number="1">end</beam>
    <notations>
     <technical>
      <string>3</string>
      <fret>4</fret>
     </technical>
    </notations>
   </note>
   <backup>
    <duration>6</duration>
   </backup>
   <note>
    <pitch>
     <step>G</step>
     <octave>2</octave>
    </pitch>
    <duration>2</duration>
    <voice>2</voice>
    <type>quarter</type>
    <stem>up</stem>
    <notations>
     <technical>
      <string>6</string>
      <fret>3</fret>
     </technical>
    </notations>
   </note>
   <note>
    <pitch>
     <step>G</step>
     <octave>3</octave>
    </pitch>
    <duration>2</duration>
    <voice>2</voice>
    <type>quarter</type>
    <stem>up</stem>
    <notations>
     <technical>
      <string>4</string>
      <fret>5</fret>
     </technical>
    </notations>
   </note>
   <note>
    <pitch>
     <step>G</step>
     <octave>2</octave>
    </pitch>
    <duration>2</duration>
    <voice>2</voice>
    <type>quarter</type>
    <stem>up</stem>
    <notations>
     <technical>
      <string>6</string>
      <fret>3</fret>
     </technical>
    </notations>
   </note>
   <note>
    <pitch>
     <step>G</step>
     <octave>3</octave>
    </pitch>
    <duration>2</duration>
    <voice>2</voice>
    <type>quarter</type>
    <stem>up</stem>
    <notations>
     <technical>
      <string>4</string>
      <fret>5</fret>
     </technical>
    </notations>
   </note>
   <barline location="right">
    <repeat times="2" direction="backward"/>
   </barline>
  </measure>
  <measure number="5">
   <harmony>
    <root>
     <root-step>C</root-step>
     <root-alter>0</root-alter>
    </root>
    <kind>major-seventh</kind>
    <frame>
     <frame-strings>6</frame-strings>
     <frame-frets>5</frame-frets>
     <first-fret>1</first-fret>
     <frame-note>
      <string>5</string>
      <fret>3</fret>
     </frame-note>
     <frame-note>
      <string>4</string>
      <fret>5</fret>
     </frame-note>
     <frame-note>
      <string>3</string>
      <fret>4</fret>
     </frame-note>
     <frame-note>
      <string>2</string>
      <fret>5</fret>
     </frame-note>
     <frame-note>
      <string>1</string>
      <fret>3</fret>
     </frame-note>
    </frame>
   </harmony>
   <note>
    <pitch>
     <step>E</step>
     <octave>4</octave>
    </pitch>
    <duration>2</duration>
    <tie type="start"/>
    <voice>1</voice>
    <type>quarter</type>
    <stem>up</stem>
    <notations>
     <technical>
      <string>2</string>
      <fret>5</fret>
     </technical>
     <tied type="start"/>
    </notations>
   </note>
   <note>
    <pitch>
     <step>E</step>
     <octave>4</octave>
    </pitch>
    <duration>1</duration>
    <tie type="stop"/>
    <voice>1</voice>
    <type>eighth</type>
    <stem>up</stem>
    <beam number="1">begin</beam>
    <notations>
     <technical>
      <string>2</string>
      <fret>5</fret>
     </technical>
     <tied type="stop"/>
    </notations>
   </note>
   <note>
    <pitch>
     <step>B</step>
     <octave>3</octave>
    </pitch>
    <duration>1</duration>
    <voice>1</voice>
    <type>eighth</type>
    <stem>up</stem>
    <beam number="1">end</beam>
    <notations>
     <technical>
      <string>3</string>
      <fret>4</fret>
     </technical>
    </notations>
   </note>
   <note>
    <rest/>
    <duration>1</duration>
    <voice>1</voice>
    <type>eighth</type>
   </note>
   <note>
    <pitch>
     <step>G</step>
     <octave>4</octave>
    </pitch>
    <duration>1</duration>
    <tie type="start"/>
    <voice>1</voice>
    <type>eighth</type>
    <stem>up</stem>
    <notations>
     <technical>
      <string>1</string>
      <fret>3</fret>
     </technical>
     <tied type="start"/>
    </notations>
   </note>
   <note>
    <pitch>
     <step>G</step>
     <octave>4</octave>
    </pitch>
    <duration>1</duration>
    <tie type="stop"/>
    <voice>1</voice>
    <type>eighth</type>
    <stem>up</stem>
    <beam number="1">begin</beam>
    <notations>
     <technical>
      <string>1</string>
      <fret>3</fret>
     </technical>
     <tied type="stop"/>
    </notations>
   </note>
   <note>
    <pitch>
     <step>B</step>
     <octave>3</octave>
    </pitch>
    <duration>1</duration>
    <voice>1</voice>
    <type>eighth</type>
    <stem>up</stem>
    <beam number="1">end</beam>
    <notations>
     <technical>
      <string>3</string>
      <fret>4</fret>
     </technical>
    </notations>
   </note>
   <backup>
    <duration>8</duration>
   </backup>
   <note>
    <pitch>
     <step>C</step>
     <octave>3</octave>
    </pitch>
    <duration>2</duration>
    <voice>2</voice>
    <type>quarter</type>
    <stem>up</stem>
    <notations>
     <technical>
      <string>5</string>
      <fret>3</fret>
     </technical>
    </notations>
   </note>
   <note>
    <pitch>
     <step>G</step>
     <octave>3</octave>
    </pitch>
    <duration>2</duration>
    <voice>2</voice>
    <type>quarter</type>
    <stem>up</stem>
    <notations>
     <technical>
      <string>4</string>
      <fret>5</fret>
     </technical>
    </notations>
   </note>
   <note>
    <pitch>
     <step>G</step>
     <octave>2</octave>
    </pitch>
    <duration>2</duration>
    <voice>2</voice>
    <type>quarter</type>
    <stem>up</stem>
    <notations>
     <technical>
      <string>6</string>
      <fret>3</fret>
     </technical>
    </notations>
   </note>
   <note>
    <pitch>
     <step>G</step>
     <octave>3</octave>
    </pitch>
    <duration>2</duration>
    <voice>2</voice>
    <type>quarter</type>
    <stem>up</stem>
    <notations>
     <technical>
      <string>4</string>
      <fret>5</fret>
     </technical>
    </notations>
   </note>
  </measure>
  <measure number="6">
   <harmony>
    <root>
     <root-step>F</root-step>
     <root-alter>0</root-alter>
    </root>
    <kind>major-seventh</kind>
    <bass>
     <bass-step>A</bass-step>
     <bass-alter>0</bass-alter>
    </bass>
    <frame>
     <frame-strings>6</frame-strings>
     <frame-frets>5</frame-frets>
     <first-fret>3</first-fret>
     <frame-note>
      <string>6</string>
      <fret>5</fret>
     </frame-note>
     <frame-note>
      <string>4</string>
      <fret>7</fret>
     </frame-note>
     <frame-note>
      <string>3</string>
      <fret>5</fret>
     </frame-note>
     <frame-note>
      <string>2</string>
      <fret>6</fret>
     </frame-note>
     <frame-note>
      <string>1</string>
      <fret>0</fret>
     </frame-note>
    </frame>
   </harmony>
   <note>
    <pitch>
     <step>F</step>
     <octave>4</octave>
    </pitch>
    <duration>2</duration>
    <tie type="start"/>
    <voice>1</voice>
    <type>quarter</type>
    <stem>up</stem>
    <notations>
     <technical>
      <string>2</string>
      <fret>6</fret>
     </technical>
     <tied type="start"/>
    </notations>
   </note>
   <note>
    <pitch>
     <step>F</step>
     <octave>4</octave>
    </pitch>
    <duration>1</duration>
    <tie type="stop"/>
    <voice>1</voice>
    <type>eighth</type>
    <stem>up</stem>
    <beam number="1">begin</beam>
    <notations>
     <technical>
      <string>2</string>
      <fret>6</fret>
     </technical>
     <tied type="stop"/>
    </notations>
   </note>
   <note>
    <pitch>
     <step>C</step>
     <octave>4</octave>
    </pitch>
    <duration>1</duration>
    <tie type="start"/>
    <voice>1</voice>
    <type>eighth</type>
    <stem>up</stem>
    <beam number="1">end</beam>
    <notations>
     <technical>
      <string>3</string>
      <fret>5</fret>
     </technical>
     <tied type="start"/>
    </notations>
   </note>
   <note>
    <pitch>
     <step>C</step>
     <octave>4</octave>
    </pitch>
    <duration>1</duration>
    <tie type="stop"/>
    <voice>1</voice>
    <type>eighth</type>
    <stem>up</stem>
    <beam number="1">begin</beam>
    <notations>
     <technical>
      <string>3</string>
      <fret>5</fret>
     </technical>
     <tied type="stop"/>
    </notations>
   </note>
   <note>
    <pitch>
     <step>E</step>
     <octave>4</octave>
    </pitch>
    <duration>1</duration>
    <tie type="start"/>
    <voice>1</voice>
    <type>eighth</type>
    <stem>up</stem>
    <beam number="1">end</beam>
    <notations>
     <technical>
      <string>1</string>
      <fret>0</fret>
     </technical>
     <tied type="start"/>
    </notations>
   </note>
   <note>
    <pitch>
     <step>E</step>
     <octave>4</octave>
    </pitch>
    <duration>1</duration>
    <tie type="stop"/>
    <voice>1</voice>
    <type>eighth</type>
    <stem>up</stem>
    <beam number="1">begin</beam>
    <notations>
     <technical>
      <string>1</string>
      <fret>0</fret>
     </technical>
     <tied type="stop"/>
    </notations>
   </note>
   <note>
    <pitch>
     <step>C</step>
     <octave>4</octave>
    </pitch>
    <duration>1</duration>
    <voice>1</voice>
    <type>eighth</type>
    <stem>up</stem>
    <beam number="1">end</beam>
    <notations>
     <technical>
      <string>3</string>
      <fret>5</fret>
     </technical>
    </notations>
   </note>
   <backup>
    <duration>8</duration>
   </backup>
   <note>
    <pitch>
     <step>A</step>
     <octave>2</octave>
    </pitch>
    <duration>2</duration>
    <voice>2</voice>
    <type>quarter</type>
    <stem>up</stem>
    <notations>
     <technical>
      <string>6</string>
      <fret>5</fret>
     </technical>
    </notations>
   </note>
   <note>
    <pitch>
     <step>A</step>
     <octave>3</octave>
    </pitch>
    <duration>2</duration>
    <voice>2</voice>
    <type>quarter</type>
    <stem>up</stem>
    <notations>
     <technical>
      <string>4</string>
      <fret>7</fret>
     </technical>
    </notations>
   </note>
   <note>
    <pitch>
     <step>A</step>
     <octave>2</octave>
    </pitch>
    <duration>2</duration>
    <voice>2</voice>
    <type>quarter</type>
    <stem>up</stem>
    <notations>
     <technical>
      <string>6</string>
      <fret>5</fret>
     </technical>
    </notations>
   </note>
   <note>
    <pitch>
     <step>A</step>
     <octave>3</octave>
    </pitch>
    <duration>2</duration>
    <voice>2</voice>
    <type>quarter</type>
    <stem>up</stem>
    <notations>
     <technical>
      <string>4</string>
      <fret>7</fret>
     </technical>
    </notations>
   </note>
  </measure>
  <measure number="7">
   <harmony>
    <root>
     <root-step>G</root-step>
     <root-alter>0</root-alter>
    </root>
    <kind>major</kind>
    <frame>
     <frame-strings>6</frame-strings>
     <frame-frets>5</frame-frets>
     <first-fret>1</first-fret>
     <frame-note>
      <string>6</string>
      <fret>3</fret>
     </frame-note>
     <frame-note>
      <string>5</string>
      <fret>5</fret>
     </frame-note>
     <frame-note>
      <string>4</string>
      <fret>5</fret>
     </frame-note>
     <frame-note>
      <string>3</string>
      <fret>4</fret>
     </frame-note>
     <frame-note>
      <string>2</string>
      <fret>3</fret>
     </frame-note>
     <frame-note>
      <string>1</string>
      <fret>3</fret>
     </frame-note>
    </frame>
   </harmony>
   <note>
    <pitch>
     <step>G</step>
     <octave>4</octave>
    </pitch>
    <duration>2</duration>
    <tie type="start"/>
    <voice>1</voice>
    <type>quarter</type>
    <stem>up</stem>
    <notations>
     <technical>
      <string>1</string>
      <fret>3</fret>
     </technical>
     <tied type="start"/>
    </notations>
   </note>
   <note>
    <pitch>
     <step>G</step>
     <octave>4</octave>
    </pitch>
    <duration>1</duration>
    <tie type="stop"/>
    <voice>1</voice>
    <type>eighth</type>
    <stem>up</stem>
    <beam number="1">begin</beam>
    <notations>
     <technical>
      <string>1</string>
      <fret>3</fret>
     </technical>
     <tied type="stop"/>
    </notations>
   </note>
   <note>
    <pitch>
     <step>B</step>
     <octave>3</octave>
    </pitch>
    <duration>1</duration>
    <tie type="start"/>
    <voice>1</voice>
    <type>eighth</type>
    <stem>up</stem>
    <beam number="1">end</beam>
    <notations>
     <technical>
      <string>3</string>
      <fret>4</fret>
     </technical>
     <tied type="start"/>
    </notations>
   </note>
   <note>
    <pitch>
     <step>A</step>
     <octave>4</octave>
    </pitch>
    <duration>1</duration>
    <voice>1</voice>
    <type>eighth</type>
    <stem>up</stem>
    <beam number="1">begin</beam>
    <notations>
     <technical>
      <hammer-on number="1" type="start">H</hammer-on>
      <string>1</string>
      <fret>5</fret>
     </technical>
     <slur type="start"/>
    </notations>
   </note>
   <note>
    <chord/>
    <pitch>
     <step>B</step>
     <octave>3</octave>
    </pitch>
    <duration>1</duration>
    <tie type="stop"/>
    <voice>1</voice>
    <type>eighth</type>
    <stem>up</stem>
    <beam number="1">begin</beam>
    <notations>
     <technical>
      <string>3</string>
      <fret>4</fret>
     </technical>
     <tied type="stop"/>
     <slur type="start"/>
    </notations>
   </note>
   <note>
    <pitch>
     <step>G</step>
     <octave>4</octave>
    </pitch>
    <duration>1</duration>
    <tie type="start"/>
    <voice>1</voice>
    <type>eighth</type>
    <stem>up</stem>
    <beam number="1">end</beam>
    <notations>
     <technical>
      <hammer-on number="1" type="stop"/>
      <string>1</string>
      <fret>3</fret>
     </technical>
     <tied type="start"/>
     <slur type="stop"/>
    </notations>
   </note>
   <note>
    <pitch>
     <step>G</step>
     <octave>4</octave>
    </pitch>
    <duration>2</duration>
    <tie type="stop"/>
    <voice>1</voice>
    <type>quarter</type>
    <stem>up</stem>
    <notations>
     <technical>
      <string>1</string>
      <fret>3</fret>
     </technical>
     <tied type="stop"/>
    </notations>
   </note>
   <backup>
    <duration>8</duration>
   </backup>
   <note>
    <pitch>
     <step>G</step>
     <octave>2</octave>
    </pitch>
    <duration>2</duration>
    <voice>2</voice>
    <type>quarter</type>
    <stem>up</stem>
    <notations>
     <technical>
      <string>6</string>
      <fret>3</fret>
     </technical>
    </notations>
   </note>
   <note>
    <pitch>
     <step>G</step>
     <octave>3</octave>
    </pitch>
    <duration>2</duration>
    <voice>2</voice>
    <type>quarter</type>
    <stem>up</stem>
    <notations>
     <technical>
      <string>4</string>
      <fret>5</fret>
     </technical>
    </notations>
   </note>
   <note>
    <pitch>
     <step>G</step>
     <octave>2</octave>
    </pitch>
    <duration>2</duration>
    <voice>2</voice>
    <type>quarter</type>
    <stem>up</stem>
    <notations>
     <technical>
      <string>6</string>
      <fret>3</fret>
     </technical>
    </notations>
   </note>
   <note>
    <pitch>
     <step>G</step>
     <octave>3</octave>
    </pitch>
    <duration>2</duration>
    <voice>2</voice>
    <type>quarter</type>
    <stem>up</stem>
    <notations>
     <technical>
      <string>4</string>
      <fret>5</fret>
     </technical>
    </notations>
   </note>
  </measure>
  <measure number="8">
   <harmony>
    <root>
     <root-step>C</root-step>
     <root-alter>0</root-alter>
    </root>
    <kind>major</kind>
    <frame>
     <frame-strings>6</frame-strings>
     <frame-frets>5</frame-frets>
     <first-fret>1</first-fret>
     <frame-note>
      <string>5</string>
      <fret>3</fret>
     </frame-note>
     <frame-note>
      <string>4</string>
      <fret>2</fret>
     </frame-note>
     <frame-note>
      <string>3</string>
      <fret>0</fret>
     </frame-note>
     <frame-note>
      <string>2</string>
      <fret>1</fret>
     </frame-note>
     <frame-note>
      <string>1</string>
      <fret>0</fret>
     </frame-note>
    </frame>
   </harmony>
   <note>
    <pitch>
     <step>E</step>
     <octave>4</octave>
    </pitch>
    <duration>2</duration>
    <tie type="start"/>
    <voice>1</voice>
    <type>quarter</type>
    <stem>up</stem>
    <notations>
     <technical>
      <string>1</string>
      <fret>0</fret>
     </technical>
     <tied type="start"/>
    </notations>
   </note>
   <note>
    <pitch>
     <step>E</step>
     <octave>4</octave>
    </pitch>
    <duration>1</duration>
    <tie type="stop"/>
    <voice>1</voice>
    <type>eighth</type>
    <stem>up</stem>
    <beam number="1">begin</beam>
    <notations>
     <technical>
      <string>1</string>
      <fret>0</fret>
     </technical>
     <tied type="stop"/>
    </notations>
   </note>
   <note>
    <pitch>
     <step>G</step>
     <octave>3</octave>
    </pitch>
    <duration>1</duration>
    <tie type="start"/>
    <voice>1</voice>
    <type>eighth</type>
    <stem>up</stem>
    <beam number="1">end</beam>
    <notations>
     <technical>
      <string>3</string>
      <fret>0</fret>
     </technical>
     <tied type="start"/>
    </notations>
   </note>
   <note>
    <pitch>
     <step>G</step>
     <octave>3</octave>
    </pitch>
    <duration>1</duration>
    <tie type="stop"/>
    <voice>1</voice>
    <type>eighth</type>
    <stem>up</stem>
    <beam number="1">begin</beam>
    <notations>
     <technical>
      <string>3</string>
      <fret>0</fret>
     </technical>
     <tied type="stop"/>
    </notations>
   </note>
   <note>
    <pitch>
     <step>C</step>
     <octave>4</octave>
    </pitch>
    <duration>1</duration>
    <tie type="start"/>
    <voice>1</voice>
    <type>eighth</type>
    <stem>up</stem>
    <beam number="1">end</beam>
    <notations>
     <technical>
      <string>2</string>
      <fret>1</fret>
     </technical>
     <tied type="start"/>
    </notations>
   </note>
   <note>
    <pitch>
     <step>C</step>
     <octave>4</octave>
    </pitch>
    <duration>1</duration>
    <tie type="stop"/>
    <voice>1</voice>
    <type>eighth</type>
    <stem>up</stem>
    <beam number="1">begin</beam>
    <notations>
     <technical>
      <string>2</string>
      <fret>1</fret>
     </technical>
     <tied type="stop"/>
    </notations>
   </note>
   <note>
    <pitch>
     <step>G</step>
     <octave>3</octave>
    </pitch>
    <duration>1</duration>
    <voice>1</voice>
    <type>eighth</type>
    <stem>up</stem>
    <beam number="1">end</beam>
    <notations>
     <technical>
      <string>3</string>
      <fret>0</fret>
     </technical>
    </notations>
   </note>
   <backup>
    <duration>8</duration>
   </backup>
   <note>
    <pitch>
     <step>C</step>
     <octave>3</octave>
    </pitch>
    <duration>2</duration>
    <voice>2</voice>
    <type>quarter</type>
    <stem>up</stem>
    <notations>
     <technical>
      <string>5</string>
      <fret>3</fret>
     </technical>
    </notations>
   </note>
   <note>
    <pitch>
     <step>E</step>
     <octave>3</octave>
    </pitch>
    <duration>2</duration>
    <voice>2</voice>
    <type>quarter</type>
    <stem>up</stem>
    <notations>
     <technical>
      <string>4</string>
      <fret>2</fret>
     </technical>
    </notations>
   </note>
   <note>
    <pitch>
     <step>G</step>
     <octave>2</octave>
    </pitch>
    <duration>2</duration>
    <voice>2</voice>
    <type>quarter</type>
    <stem>up</stem>
    <notations>
     <technical>
      <string>6</string>
      <fret>3</fret>
     </technical>
    </notations>
   </note>
   <note>
    <pitch>
     <step>E</step>
     <octave>3</octave>
    </pitch>
    <duration>2</duration>
    <voice>2</voice>
    <type>quarter</type>
    <stem>up</stem>
    <notations>
     <technical>
      <string>4</string>
      <fret>2</fret>
     </technical>
    </notations>
   </note>
  </measure>
  <measure number="9">
   <harmony>
    <root>
     <root-step>G</root-step>
     <root-alter>0</root-alter>
    </root>
    <kind>dominant</kind>
    <frame>
     <frame-strings>6</frame-strings>
     <frame-frets>5</frame-frets>
     <first-fret>1</first-fret>
     <frame-note>
      <string>6</string>
      <fret>3</fret>
     </frame-note>
     <frame-note>
      <string>5</string>
      <fret>2</fret>
     </frame-note>
     <frame-note>
      <string>4</string>
      <fret>0</fret>
     </frame-note>
     <frame-note>
      <string>3</string>
      <fret>0</fret>
     </frame-note>
     <frame-note>
      <string>2</string>
      <fret>0</fret>
     </frame-note>
     <frame-note>
      <string>1</string>
      <fret>1</fret>
     </frame-note>
    </frame>
   </harmony>
   <note>
    <pitch>
     <step>F</step>
     <octave>4</octave>
    </pitch>
    <duration>2</duration>
    <voice>1</voice>
    <type>quarter</type>
    <stem>up</stem>
    <notations>
     <technical>
      <string>1</string>
      <fret>1</fret>
     </technical>
    </notations>
   </note>
   <note>
    <rest/>
    <duration>1</duration>
    <voice>1</voice>
    <type>eighth</type>
   </note>
   <note>
    <pitch>
     <step>G</step>
     <octave>3</octave>
    </pitch>
    <duration>1</duration>
    <voice>1</voice>
    <type>eighth</type>
    <stem>up</stem>
    <notations>
     <technical>
      <string>3</string>
      <fret>0</fret>
     </technical>
    </notations>
   </note>
   <note>
    <pitch>
     <step>D</step>
     <octave>4</octave>
    </pitch>
    <duration>1</duration>
    <voice>1</voice>
    <type>eighth</type>
    <stem>up</stem>
    <beam number="1">begin</beam>
    <notations>
     <technical>
      <hammer-on number="1" type="start">H</hammer-on>
      <string>2</string>
      <fret>3</fret>
     </technical>
     <slur type="start"/>
    </notations>
   </note>
   <note>
    <pitch>
     <step>C</step>
     <octave>4</octave>
    </pitch>
    <duration>1</duration>
    <voice>1</voice>
    <type>eighth</type>
    <stem>up</stem>
    <beam number="1">end</beam>
    <notations>
     <technical>
      <hammer-on number="1" type="start">H</hammer-on>
      <hammer-on number="1" type="stop"/>
      <string>2</string>
      <fret>1</fret>
     </technical>
     <slur type="continue"/>
    </notations>
   </note>
   <note>
    <pitch>
     <step>D</step>
     <octave>4</octave>
    </pitch>
    <duration>1</duration>
    <voice>1</voice>
    <type>eighth</type>
    <stem>up</stem>
    <beam number="1">begin</beam>
    <notations>
     <technical>
      <hammer-on number="1" type="stop"/>
      <string>2</string>
      <fret>3</fret>
     </technical>
     <slur type="stop"/>
    </notations>
   </note>
   <note>
    <pitch>
     <step>E</step>
     <octave>4</octave>
    </pitch>
    <duration>1</duration>
    <tie type="start"/>
    <voice>1</voice>
    <type>eighth</type>
    <stem>up</stem>
    <beam number="1">end</beam>
    <notations>
     <technical>
      <string>1</string>
      <fret>0</fret>
     </technical>
     <tied type="start"/>
    </notations>
   </note>
   <backup>
    <duration>8</duration>
   </backup>
   <note>
    <pitch>
     <step>G</step>
     <octave>2</octave>
    </pitch>
    <duration>2</duration>
    <voice>2</voice>
    <type>quarter</type>
    <stem>up</stem>
    <notations>
     <technical>
      <string>6</string>
      <fret>3</fret>
     </technical>
    </notations>
   </note>
   <note>
    <pitch>
     <step>D</step>
     <octave>3</octave>
    </pitch>
    <duration>2</duration>
    <voice>2</voice>
    <type>quarter</type>
    <stem>up</stem>
    <notations>
     <technical>
      <string>4</string>
      <fret>0</fret>
     </technical>
    </notations>
   </note>
   <note>
    <pitch>
     <step>G</step>
     <octave>2</octave>
    </pitch>
    <duration>2</duration>
    <voice>2</voice>
    <type>quarter</type>
    <stem>up</stem>
    <notations>
     <technical>
      <string>6</string>
      <fret>3</fret>
     </technical>
    </notations>
   </note>
   <note>
    <pitch>
     <step>D</step>
     <octave>3</octave>
    </pitch>
    <duration>1</duration>
    <voice>2</voice>
    <type>eighth</type>
    <stem>up</stem>
    <notations>
     <technical>
      <string>4</string>
      <fret>0</fret>
     </technical>
    </notations>
   </note>
  </measure>
  <measure number="10">
   <harmony>
    <root>
     <root-step>C</root-step>
     <root-alter>0</root-alter>
    </root>
    <kind>major</kind>
    <frame>
     <frame-strings>6</frame-strings>
     <frame-frets>5</frame-frets>
     <first-fret>1</first-fret>
     <frame-note>
      <string>5</string>
      <fret>3</fret>
     </frame-note>
     <frame-note>
      <string>4</string>
      <fret>2</fret>
     </frame-note>
     <frame-note>
      <string>3</string>
      <fret>0</fret>
     </frame-note>
     <frame-note>
      <string>2</string>
      <fret>1</fret>
     </frame-note>
     <frame-note>
      <string>1</string>
      <fret>0</fret>
     </frame-note>
    </frame>
   </harmony>
   <note>
    <pitch>
     <step>E</step>
     <octave>4</octave>
    </pitch>
    <duration>2</duration>
    <tie type="stop"/>
    <voice>1</voice>
    <type>quarter</type>
    <stem>up</stem>
    <notations>
     <technical>
      <string>1</string>
      <fret>0</fret>
     </technical>
     <tied type="stop"/>
    </notations>
   </note>
   <note>
    <rest/>
    <duration>1</duration>
    <voice>1</voice>
    <type>eighth</type>
   </note>
   <note>
    <pitch>
     <step>G</step>
     <octave>3</octave>
    </pitch>
    <duration>1</duration>
    <tie type="start"/>
    <voice>1</voice>
    <type>eighth</type>
    <stem>up</stem>
    <notations>
     <technical>
      <string>3</string>
      <fret>0</fret>
     </technical>
     <tied type="start"/>
    </notations>
   </note>
   <note>
    <pitch>
     <step>G</step>
     <octave>3</octave>
    </pitch>
    <duration>1</duration>
    <tie type="stop"/>
    <voice>1</voice>
    <type>eighth</type>
    <stem>up</stem>
    <beam number="1">begin</beam>
    <notations>
     <technical>
      <string>3</string>
      <fret>0</fret>
     </technical>
     <tied type="stop"/>
    </notations>
   </note>
   <note>
    <pitch>
     <step>C</step>
     <octave>4</octave>
    </pitch>
    <duration>1</duration>
    <tie type="start"/>
    <voice>1</voice>
    <type>eighth</type>
    <stem>up</stem>
    <beam number="1">end</beam>
    <notations>
     <technical>
      <string>2</string>
      <fret>1</fret>
     </technical>
     <tied type="start"/>
    </notations>
   </note>
   <note>
    <pitch>
     <step>C</step>
     <octave>4</octave>
    </pitch>
    <duration>1</duration>
    <tie type="stop"/>
    <voice>1</voice>
    <type>eighth</type>
    <stem>up</stem>
    <beam number="1">begin</beam>
    <notations>
     <technical>
      <string>2</string>
      <fret>1</fret>
     </technical>
     <tied type="stop"/>
    </notations>
   </note>
   <note>
    <pitch>
     <step>G</step>
     <octave>3</octave>
    </pitch>
    <duration>1</duration>
    <voice>1</voice>
    <type>eighth</type>
    <stem>up</stem>
    <beam number="1">end</beam>
    <notations>
     <technical>
      <string>3</string>
      <fret>0</fret>
     </technical>
    </notations>
   </note>
   <backup>
    <duration>8</duration>
   </backup>
   <note>
    <pitch>
     <step>C</step>
     <octave>3</octave>
    </pitch>
    <duration>2</duration>
    <voice>2</voice>
    <type>quarter</type>
    <stem>up</stem>
    <notations>
     <technical>
      <string>5</string>
      <fret>3</fret>
     </technical>
    </notations>
   </note>
   <note>
    <pitch>
     <step>E</step>
     <octave>3</octave>
    </pitch>
    <duration>2</duration>
    <voice>2</voice>
    <type>quarter</type>
    <stem>up</stem>
    <notations>
     <technical>
      <string>4</string>
      <fret>2</fret>
     </technical>
    </notations>
   </note>
   <note>
    <pitch>
     <step>G</step>
     <octave>2</octave>
    </pitch>
    <duration>2</duration>
    <voice>2</voice>
    <type>quarter</type>
    <stem>up</stem>
    <notations>
     <technical>
      <string>6</string>
      <fret>3</fret>
     </technical>
    </notations>
   </note>
   <note>
    <pitch>
     <step>E</step>
     <octave>3</octave>
    </pitch>
    <duration>2</duration>
    <voice>2</voice>
    <type>quarter</type>
    <stem>up</stem>
    <notations>
     <technical>
      <string>4</string>
      <fret>2</fret>
     </technical>
    </notations>
   </note>
  </measure>
  <measure number="11">
   <attributes>
    <divisions>6</divisions>
   </attributes>
   <harmony>
    <root>
     <root-step>A</root-step>
     <root-alter>0</root-alter>
    </root>
    <kind>suspended-fourth</kind>
    <frame>
     <frame-strings>6</frame-strings>
     <frame-frets>5</frame-frets>
     <first-fret>1</first-fret>
     <frame-note>
      <string>5</string>
      <fret>0</fret>
     </frame-note>
     <frame-note>
      <string>4</string>
      <fret>2</fret>
     </frame-note>
     <frame-note>
      <string>3</string>
      <fret>2</fret>
     </frame-note>
     <frame-note>
      <string>2</string>
      <fret>3</fret>
     </frame-note>
     <frame-note>
      <string>1</string>
      <fret>0</fret>
     </frame-note>
    </frame>
   </harmony>
   <note>
    <pitch>
     <step>D</step>
     <octave>4</octave>
    </pitch>
    <duration>6</duration>
    <voice>1</voice>
    <type>quarter</type>
    <stem>up</stem>
    <notations>
     <technical>
      <string>2</string>
      <fret>3</fret>
     </technical>
    </notations>
   </note>
   <note>
    <rest/>
    <duration>3</duration>
    <voice>1</voice>
    <type>eighth</type>
   </note>
   <note>
    <pitch>
     <step>C</step>
     <octave>4</octave>
    </pitch>
    <duration>3</duration>
    <voice>1</voice>
    <type>eighth</type>
    <stem>up</stem>
    <notations>
     <technical>
      <string>2</string>
      <fret>1</fret>
     </technical>
    </notations>
   </note>
   <note>
    <pitch>
     <step>D</step>
     <alter>1</alter>
     <octave>4</octave>
    </pitch>
    <duration>2</duration>
    <voice>1</voice>
    <type>eighth</type>
    <accidental>sharp</accidental>
    <time-modification>
     <actual-notes>3</actual-notes>
     <normal-notes>2</normal-notes>
    </time-modification>
    <stem>up</stem>
    <beam number="1">begin</beam>
    <notations>
     <tuplet bracket="yes" number="1" type="start" placement="below"/>
     <technical>
      <string>2</string>
      <fret>4</fret>
     </technical>
     <slur type="start"/>
     <slide number="5" type="start"/>
    </notations>
   </note>
   <note>
    <pitch>
     <step>D</step>
     <octave>4</octave>
    </pitch>
    <duration>2</duration>
    <voice>1</voice>
    <type>eighth</type>
    <accidental>natural</accidental>
    <time-modification>
     <actual-notes>3</actual-notes>
     <normal-notes>2</normal-notes>
    </time-modification>
    <stem>up</stem>
    <beam number="1">continue</beam>
    <notations>
     <technical>
      <string>2</string>
      <fret>3</fret>
     </technical>
     <slur type="stop"/>
     <slide number="5" type="stop"/>
    </notations>
   </note>
   <note>
    <pitch>
     <step>C</step>
     <octave>4</octave>
    </pitch>
    <duration>2</duration>
    <voice>1</voice>
    <type>eighth</type>
    <time-modification>
     <actual-notes>3</actual-notes>
     <normal-notes>2</normal-notes>
    </time-modification>
    <stem>up</stem>
    <beam number="1">end</beam>
    <notations>
     <tuplet bracket="yes" number="1" type="stop" placement="below"/>
     <technical>
      <string>2</string>
      <fret>1</fret>
     </technical>
    </notations>
   </note>
   <note>
    <pitch>
     <step>E</step>
     <octave>3</octave>
    </pitch>
    <duration>3</duration>
    <voice>1</voice>
    <type>eighth</type>
    <stem>up</stem>
    <beam number="1">begin</beam>
    <notations>
     <technical>
      <string>4</string>
      <fret>2</fret>
     </technical>
    </notations>
   </note>
   <note>
    <chord/>
    <pitch>
     <step>D</step>
     <octave>4</octave>
    </pitch>
    <duration>3</duration>
    <tie type="start"/>
    <voice>1</voice>
    <type>eighth</type>
    <stem>up</stem>
    <beam number="1">begin</beam>
    <notations>
     <technical>
      <string>2</string>
      <fret>3</fret>
     </technical>
     <tied type="start"/>
    </notations>
   </note>
   <note>
    <pitch>
     <step>D</step>
     <octave>4</octave>
    </pitch>
    <duration>3</duration>
    <tie type="stop"/>
    <voice>1</voice>
    <type>eighth</type>
    <stem>up</stem>
    <beam number="1">end</beam>
    <notations>
     <technical>
      <string>2</string>
      <fret>3</fret>
     </technical>
     <tied type="stop"/>
    </notations>
   </note>
   <backup>
    <duration>24</duration>
   </backup>
   <note>
    <pitch>
     <step>A</step>
     <octave>2</octave>
    </pitch>
    <duration>6</duration>
    <voice>2</voice>
    <type>quarter</type>
    <stem>up</stem>
    <notations>
     <technical>
      <string>5</string>
      <fret>0</fret>
     </technical>
    </notations>
   </note>
   <note>
    <pitch>
     <step>E</step>
     <octave>3</octave>
    </pitch>
    <duration>6</duration>
    <voice>2</voice>
    <type>quarter</type>
    <stem>up</stem>
    <notations>
     <technical>
      <string>4</string>
      <fret>2</fret>
     </technical>
    </notations>
   </note>
   <note>
    <pitch>
     <step>E</step>
     <octave>2</octave>
    </pitch>
    <duration>6</duration>
    <voice>2</voice>
    <type>quarter</type>
    <stem>up</stem>
    <notations>
     <technical>
      <string>6</string>
      <fret>0</fret>
     </technical>
    </notations>
   </note>
   <backup>
    <duration>18</duration>
   </backup>
   <note>
    <rest/>
    <duration>18</duration>
    <voice>3</voice>
    <type>half</type>
    <dot/>
   </note>
   <backup>
    <duration>18</duration>
   </backup>
   <note>
    <rest/>
    <duration>18</duration>
    <voice>4</voice>
    <type>half</type>
    <dot/>
   </note>
  </measure>
  <measure number="12">
   <attributes>
    <divisions>2</divisions>
   </attributes>
   <harmony>
    <root>
     <root-step>F</root-step>
     <root-alter>0</root-alter>
    </root>
    <kind>major</kind>
    <frame>
     <frame-strings>6</frame-strings>
     <frame-frets>5</frame-frets>
     <first-fret>1</first-fret>
     <frame-note>
      <string>6</string>
      <fret>1</fret>
     </frame-note>
     <frame-note>
      <string>4</string>
      <fret>3</fret>
     </frame-note>
     <frame-note>
      <string>3</string>
      <fret>2</fret>
     </frame-note>
     <frame-note>
      <string>2</string>
      <fret>1</fret>
     </frame-note>
    </frame>
   </harmony>
   <note>
    <pitch>
     <step>C</step>
     <octave>4</octave>
    </pitch>
    <duration>1</duration>
    <voice>1</voice>
    <type>eighth</type>
    <stem>up</stem>
    <beam number="1">begin</beam>
    <notations>
     <technical>
      <string>2</string>
      <fret>1</fret>
     </technical>
    </notations>
   </note>
   <note>
    <pitch>
     <step>A</step>
     <octave>3</octave>
    </pitch>
    <duration>1</duration>
    <tie type="start"/>
    <voice>1</voice>
    <type>eighth</type>
    <stem>up</stem>
    <beam number="1">end</beam>
    <notations>
     <technical>
      <string>3</string>
      <fret>2</fret>
     </technical>
     <tied type="start"/>
    </notations>
   </note>
   <note>
    <pitch>
     <step>A</step>
     <octave>3</octave>
    </pitch>
    <duration>1</duration>
    <tie type="stop"/>
    <voice>1</voice>
    <type>eighth</type>
    <stem>up</stem>
    <beam number="1">begin</beam>
    <notations>
     <technical>
      <string>3</string>
      <fret>2</fret>
     </technical>
     <tied type="stop"/>
    </notations>
   </note>
   <note>
    <pitch>
     <step>A</step>
     <octave>3</octave>
    </pitch>
    <duration>1</duration>
    <voice>1</voice>
    <type>eighth</type>
    <stem>up</stem>
    <beam number="1">end</beam>
    <notations>
     <technical>
      <string>3</string>
      <fret>2</fret>
     </technical>
    </notations>
   </note>
   <harmony>
    <root>
     <root-step>G</root-step>
     <root-alter>0</root-alter>
    </root>
    <kind>major</kind>
    <frame>
     <frame-strings>6</frame-strings>
     <frame-frets>5</frame-frets>
     <first-fret>1</first-fret>
     <frame-note>
      <string>6</string>
      <fret>3</fret>
     </frame-note>
     <frame-note>
      <string>5</string>
      <fret>2</fret>
     </frame-note>
     <frame-note>
      <string>4</string>
      <fret>0</fret>
     </frame-note>
     <frame-note>
      <string>3</string>
      <fret>0</fret>
     </frame-note>
     <frame-note>
      <string>2</string>
      <fret>3</fret>
     </frame-note>
    </frame>
   </harmony>
   <note>
    <pitch>
     <step>D</step>
     <octave>4</octave>
    </pitch>
    <duration>1</duration>
    <voice>1</voice>
    <type>eighth</type>
    <stem>up</stem>
    <beam number="1">begin</beam>
    <notations>
     <technical>
      <string>2</string>
      <fret>3</fret>
     </technical>
    </notations>
   </note>
   <note>
    <pitch>
     <step>G</step>
     <octave>3</octave>
    </pitch>
    <duration>1</duration>
    <voice>1</voice>
    <type>eighth</type>
    <stem>up</stem>
    <beam number="1">end</beam>
    <notations>
     <technical>
      <string>3</string>
      <fret>0</fret>
     </technical>
    </notations>
   </note>
   <note>
    <pitch>
     <step>D</step>
     <octave>4</octave>
    </pitch>
    <duration>2</duration>
    <voice>1</voice>
    <type>quarter</type>
    <stem>up</stem>
    <notations>
     <technical>
      <string>2</string>
      <fret>3</fret>
     </technical>
    </notations>
   </note>
   <backup>
    <duration>8</duration>
   </backup>
   <note>
    <pitch>
     <step>F</step>
     <octave>2</octave>
    </pitch>
    <duration>2</duration>
    <voice>2</voice>
    <type>quarter</type>
    <stem>up</stem>
    <notations>
     <technical>
      <string>6</string>
      <fret>1</fret>
     </technical>
    </notations>
   </note>
   <note>
    <pitch>
     <step>F</step>
     <octave>3</octave>
    </pitch>
    <duration>2</duration>
    <voice>2</voice>
    <type>quarter</type>
    <stem>up</stem>
    <notations>
     <technical>
      <string>4</string>
      <fret>3</fret>
     </technical>
    </notations>
   </note>
   <note>
    <pitch>
     <step>G</step>
     <octave>2</octave>
    </pitch>
    <duration>2</duration>
    <voice>2</voice>
    <type>quarter</type>
    <stem>up</stem>
    <notations>
     <technical>
      <string>6</string>
      <fret>3</fret>
     </technical>
    </notations>
   </note>
   <note>
    <pitch>
     <step>D</step>
     <octave>3</octave>
    </pitch>
    <duration>2</duration>
    <voice>2</voice>
    <type>quarter</type>
    <stem>up</stem>
    <notations>
     <technical>
      <string>4</string>
      <fret>0</fret>
     </technical>
    </notations>
   </note>
  </measure>
  <measure number="13">
   <attributes>
    <divisions>1</divisions>
   </attributes>
   <harmony>
    <root>
     <root-step>C</root-step>
     <root-alter>0</root-alter>
    </root>
    <kind>major</kind>
    <frame>
     <frame-strings>6</frame-strings>
     <frame-frets>5</frame-frets>
     <first-fret>1</first-fret>
     <frame-note>
      <string>5</string>
      <fret>3</fret>
     </frame-note>
     <frame-note>
      <string>4</string>
      <fret>2</fret>
     </frame-note>
     <frame-note>
      <string>3</string>
      <fret>0</fret>
     </frame-note>
     <frame-note>
      <string>2</string>
      <fret>1</fret>
     </frame-note>
     <frame-note>
      <string>1</string>
      <fret>0</fret>
     </frame-note>
    </frame>
   </harmony>
   <note>
    <pitch>
     <step>C</step>
     <octave>3</octave>
    </pitch>
    <duration>4</duration>
    <voice>1</voice>
    <type>whole</type>
    <stem>up</stem>
    <notations>
     <technical>
      <string>5</string>
      <fret>3</fret>
     </technical>
     <arpeggiate direction="up"/>
    </notations>
   </note>
   <note>
    <chord/>
    <pitch>
     <step>E</step>
     <octave>3</octave>
    </pitch>
    <duration>4</duration>
    <voice>1</voice>
    <type>whole</type>
    <stem>up</stem>
    <notations>
     <technical>
      <string>4</string>
      <fret>2</fret>
     </technical>
     <arpeggiate direction="up"/>
    </notations>
   </note>
   <note>
    <chord/>
    <pitch>
     <step>G</step>
     <octave>3</octave>
    </pitch>
    <duration>4</duration>
    <voice>1</voice>
    <type>whole</type>
    <stem>up</stem>
    <notations>
     <technical>
      <string>3</string>
      <fret>0</fret>
     </technical>
     <arpeggiate direction="up"/>
    </notations>
   </note>
   <note>
    <chord/>
    <pitch>
     <step>C</step>
     <octave>4</octave>
    </pitch>
    <duration>4</duration>
    <voice>1</voice>
    <type>whole</type>
    <stem>up</stem>
    <notations>
     <technical>
      <string>2</string>
      <fret>1</fret>
     </technical>
     <arpeggiate direction="up"/>
    </notations>
   </note>
   <note>
    <chord/>
    <pitch>
     <step>E</step>
     <octave>4</octave>
    </pitch>
    <duration>4</duration>
    <voice>1</voice>
    <type>whole</type>
    <stem>up</stem>
    <notations>
     <technical>
      <string>1</string>
      <fret>0</fret>
     </technical>
     <arpeggiate direction="up"/>
    </notations>
   </note>
  </measure>
 </part>
</score-partwise>
